<svg width="421" height="358" viewBox="0 0 421 358" fill="none" xmlns="http://www.w3.org/2000/svg">
<path d="M196.667 7.79704C202.875 -2.59897 217.934 -2.59905 224.142 7.79704L418.522 333.338C424.889 344.003 417.205 357.54 404.784 357.54H252.509C276.706 356.374 295.431 351.124 308.685 341.79C323.831 330.91 331.404 315.87 331.404 296.67C331.404 283.657 328.311 272.67 322.124 263.71C316.151 254.75 307.724 248.03 296.844 243.55C294.844 242.687 292.79 241.905 290.682 241.201C299.39 236.624 306.351 230.473 311.564 222.75C317.324 214.004 320.204 203.764 320.204 192.03C320.204 174.537 313.058 160.457 298.765 149.79C284.685 139.124 263.564 133.79 235.404 133.79H125.964V357.54H16.0244C3.60304 357.54 -4.08077 344.003 2.28713 333.338L196.667 7.79704Z" fill="#002D4F"/>
<path d="M237.964 263.391C251.404 263.391 261.538 265.737 268.364 270.431C275.404 274.911 278.924 281.844 278.924 291.231C278.924 300.831 275.404 307.871 268.364 312.351C261.538 316.617 251.404 318.75 237.964 318.75H177.484V263.391H237.964Z" fill="#002D4F"/>
<path d="M229.004 172.83C241.59 172.83 251.19 175.07 257.804 179.55C264.63 183.817 268.044 190.324 268.044 199.07C268.044 208.03 264.63 214.751 257.804 219.231C251.19 223.497 241.59 225.63 229.004 225.63H177.484V172.83H229.004Z" fill="#002D4F"/>
</svg>
