<svg width="445" height="382" viewBox="0 0 445 382" fill="none" xmlns="http://www.w3.org/2000/svg">
<g filter="url(#filter0_dii_2151_15)">
<path d="M208.667 13.797C214.875 3.40103 229.934 3.40095 236.142 13.797L430.522 339.338C436.889 350.003 429.205 363.54 416.784 363.54H264.509C288.706 362.374 307.431 357.124 320.685 347.79C335.831 336.91 343.404 321.87 343.404 302.67C343.404 289.657 340.311 278.67 334.124 269.71C328.151 260.75 319.724 254.03 308.844 249.55C306.844 248.687 304.79 247.905 302.682 247.201C311.39 242.624 318.351 236.473 323.564 228.75C329.324 220.004 332.204 209.764 332.204 198.03C332.204 180.537 325.058 166.457 310.765 155.79C296.685 145.124 275.564 139.79 247.404 139.79H137.964V363.54H28.0244C15.603 363.54 7.91923 350.003 14.2871 339.338L208.667 13.797Z" fill="#002D4F"/>
<path d="M249.964 269.391C263.404 269.391 273.538 271.737 280.364 276.431C287.404 280.911 290.924 287.844 290.924 297.231C290.924 306.831 287.404 313.871 280.364 318.351C273.538 322.617 263.404 324.75 249.964 324.75H189.484V269.391H249.964Z" fill="#002D4F"/>
<path d="M241.004 178.83C253.59 178.83 263.19 181.07 269.804 185.55C276.63 189.817 280.044 196.324 280.044 205.07C280.044 214.03 276.63 220.751 269.804 225.231C263.19 229.497 253.59 231.63 241.004 231.63H189.484V178.83H241.004Z" fill="#002D4F"/>
<path d="M209.525 14.3096C215.345 4.56334 229.463 4.56329 235.283 14.3096L429.663 339.851C435.633 349.849 428.429 362.54 416.784 362.54H283.983C299.184 360.025 311.623 355.394 321.261 348.607L321.268 348.603C336.685 337.528 344.404 322.181 344.404 302.67C344.404 289.494 341.269 278.299 334.946 269.142C329.044 260.294 320.799 253.601 310.253 249.059L309.225 248.625C307.883 248.047 306.518 247.505 305.129 246.998C313.057 242.475 319.486 236.581 324.394 229.31L324.399 229.3C330.279 220.371 333.204 209.935 333.204 198.03C333.204 180.216 325.904 165.844 311.367 154.993H311.368C297.038 144.137 275.662 138.79 247.404 138.79H136.964V362.54H28.0244C16.3794 362.54 9.17562 349.849 15.1455 339.851L209.525 14.3096ZM249.964 270.391C262.899 270.391 272.591 272.584 279.171 276.837L279.827 277.274C286.538 281.545 289.924 288.135 289.924 297.23C289.924 306.549 286.531 313.241 279.827 317.507C273.233 321.625 263.324 323.75 249.964 323.75H190.484V270.391H249.964ZM241.004 179.83C253.496 179.83 262.866 182.058 269.243 186.378L269.258 186.389L269.273 186.398C275.779 190.464 279.044 196.633 279.044 205.07C279.044 213.732 275.769 220.12 269.255 224.395C262.873 228.509 253.499 230.63 241.004 230.63H190.484V179.83H241.004Z" stroke="#073F68" stroke-width="2"/>
</g>
<defs>
<filter id="filter0_dii_2151_15" x="0" y="0" width="444.809" height="381.54" filterUnits="userSpaceOnUse" color-interpolation-filters="sRGB">
<feFlood flood-opacity="0" result="BackgroundImageFix"/>
<feColorMatrix in="SourceAlpha" type="matrix" values="0 0 0 0 0 0 0 0 0 0 0 0 0 0 0 0 0 0 127 0" result="hardAlpha"/>
<feOffset dy="6"/>
<feGaussianBlur stdDeviation="6"/>
<feComposite in2="hardAlpha" operator="out"/>
<feColorMatrix type="matrix" values="0 0 0 0 0 0 0 0 0 0 0 0 0 0 0 0 0 0 0.2 0"/>
<feBlend mode="normal" in2="BackgroundImageFix" result="effect1_dropShadow_2151_15"/>
<feBlend mode="normal" in="SourceGraphic" in2="effect1_dropShadow_2151_15" result="shape"/>
<feColorMatrix in="SourceAlpha" type="matrix" values="0 0 0 0 0 0 0 0 0 0 0 0 0 0 0 0 0 0 127 0" result="hardAlpha"/>
<feOffset dy="2"/>
<feGaussianBlur stdDeviation="2"/>
<feComposite in2="hardAlpha" operator="arithmetic" k2="-1" k3="1"/>
<feColorMatrix type="matrix" values="0 0 0 0 0 0 0 0 0 0 0 0 0 0 0 0 0 0 0.25 0"/>
<feBlend mode="normal" in2="shape" result="effect2_innerShadow_2151_15"/>
<feColorMatrix in="SourceAlpha" type="matrix" values="0 0 0 0 0 0 0 0 0 0 0 0 0 0 0 0 0 0 127 0" result="hardAlpha"/>
<feOffset dy="-2"/>
<feGaussianBlur stdDeviation="2"/>
<feComposite in2="hardAlpha" operator="arithmetic" k2="-1" k3="1"/>
<feColorMatrix type="matrix" values="0 0 0 0 1 0 0 0 0 1 0 0 0 0 1 0 0 0 0.3 0"/>
<feBlend mode="normal" in2="effect2_innerShadow_2151_15" result="effect3_innerShadow_2151_15"/>
</filter>
</defs>
</svg>
